# xmcd
#
# Track frame offsets: 
#        150
#        18751
#        34563
#        53397
#        66566
#        83218
#        106145
#        119043
#        136100
#        146826
#        159759
#        176984
#
# Disc length: 2581 seconds
#
# Revision: 6
# Processed by: cddbd v1.5.2PL0 Copyright (c) Steve Scherf et al.
# Submitted via: ExactAudioCopyFreeDBPlugin 1.0
#
DISCID=9b0a130c
DTITLE=דני רובס - משהו חדש מתחיל
DYEAR=2008
DGENRE=
TTITLE0=משהו חדש מתחיל
TTITLE1=כמה
TTITLE2=גילי
TTITLE3=בריחה
TTITLE4=את לא כאן איתי
TTITLE5=לומד להפרד
TTITLE6=את תכשפי אותי
TTITLE7=אנחנו זמן עבר
TTITLE8=מישהו אלמוני
TTITLE9=אדון טוקאטלי
TTITLE10=יום גשום
TTITLE11=אני רואה אותך
EXTD=YEAR: 2008
EXTT0=
EXTT1=
EXTT2=
EXTT3=
EXTT4=
EXTT5=
EXTT6=
EXTT7=
EXTT8=
EXTT9=
EXTT10=
EXTT11=
PLAYORDER=
